<?xml version="1.0" encoding="UTF-8"?>
<svg xmlns="http://www.w3.org/2000/svg" style="display: none;">
<defs>
  <symbol id="bell" viewBox="0 0 24 24">
    <path d="M22.555,13.662l-1.9-6.836A9.321,9.321,0,0,0,2.576,7.3L1.105,13.915A5,5,0,0,0,5.986,20H7.1a5,5,0,0,0,9.8,0h.838a5,5,0,0,0,4.818-6.338ZM12,22a3,3,0,0,1-2.816-2h5.632A3,3,0,0,1,12,22Zm8.126-5.185A2.977,2.977,0,0,1,17.737,18H5.986a3,3,0,0,1-2.928-3.651l1.47-6.616a7.321,7.321,0,0,1,14.2-.372l1.9,6.836A2.977,2.977,0,0,1,20.126,16.815Z"/>
  </symbol>
  <symbol id="body-relax" viewBox="0 0 24 24">
    <path fill="#ffffff" d="M21,12H12.021l-2.054-2.935c-.905-1.293-2.388-2.065-3.966-2.065h-.5c-1.93,0-3.5,1.57-3.5,3.5v1.684c-1.161,.414-2,1.514-2,2.816v4c0,2.757,2.243,5,5,5h14c2.757,0,5-2.243,5-5v-4c0-1.654-1.346-3-3-3Zm-12,2v8h-2V14h2Zm2,0h2v8h-2V14Zm4,0h2v8h-2V14ZM5.5,9h.5c.926,0,1.796,.453,2.328,1.212l1.252,1.788H4v-1.5c0-.827,.673-1.5,1.5-1.5Zm-3.5,10v-4c0-.551,.449-1,1-1h2v8c-1.654,0-3-1.346-3-3Zm20,0c0,1.654-1.346,3-3,3V14h2c.551,0,1,.449,1,1v4ZM3,2.5C3,1.119,4.119,0,5.5,0s2.5,1.119,2.5,2.5-1.119,2.5-2.5,2.5-2.5-1.119-2.5-2.5Zm16-1.328v-.169c-.002-.552,.444-1.001,.997-1.003h.003c.551,0,.999,.446,1,.997v.172c0,.638,.258,1.261,.708,1.71,.833,.833,1.293,1.941,1.293,3.121,0,.552-.448,1-1,1s-1-.448-1-1c0-.645-.251-1.251-.707-1.707-.834-.834-1.293-1.942-1.293-3.122Zm-2.707,3.814c-.834-.834-1.293-1.942-1.293-3.122v-.864c0-.552,.448-1,1-1s1,.448,1,1v.864c0,.635,.258,1.258,.707,1.707,.833,.833,1.293,1.941,1.293,3.121v.308c0,.552-.448,1-1,1s-1-.448-1-1v-.308c0-.645-.251-1.251-.707-1.707Z"/>
  </symbol>
  <symbol id="calendar" viewBox="0 0 24 24">
    <path d="M19,2H18V1a1,1,0,0,0-2,0V2H8V1A1,1,0,0,0,6,1V2H5A5.006,5.006,0,0,0,0,7V19a5.006,5.006,0,0,0,5,5H19a5.006,5.006,0,0,0,5-5V7A5.006,5.006,0,0,0,19,2ZM2,7A3,3,0,0,1,5,4H19a3,3,0,0,1,3,3V8H2ZM19,22H5a3,3,0,0,1-3-3V10H22v9A3,3,0,0,1,19,22Z"/><circle cx="12" cy="15" r="1.5"/><circle cx="7" cy="15" r="1.5"/><circle cx="17" cy="15" r="1.5"/>
  </symbol>
  <symbol id="clock" viewBox="0 0 24 24">
    <path d="M12,0A12,12,0,1,0,24,12,12.013,12.013,0,0,0,12,0Zm0,22A10,10,0,1,1,22,12,10.011,10.011,0,0,1,12,22Z"/><path d="M12,6a1,1,0,0,0-1,1v4.325L7.629,13.437a1,1,0,0,0,1.062,1.7l3.84-2.4A1,1,0,0,0,13,11.879V7A1,1,0,0,0,12,6Z"/>
  </symbol>
  <symbol id="credit-card" viewBox="0 0 24 24">
    <circle cx="5.5" cy="15.5" r="1.5"/><path d="M19,3H5A5.006,5.006,0,0,0,0,8v8a5.006,5.006,0,0,0,5,5H19a5.006,5.006,0,0,0,5-5V8A5.006,5.006,0,0,0,19,3ZM5,5H19a3,3,0,0,1,3,3H2A3,3,0,0,1,5,5ZM19,19H5a3,3,0,0,1-3-3V10H22v6A3,3,0,0,1,19,19Z"/>
  </symbol>
  <symbol id="gift-box-benefits" viewBox="0 0 24 24">
    <path d="m20,5h-1.435c.201-.358.342-.75.401-1.169.127-.888-.1-1.771-.637-2.488-.538-.718-1.323-1.183-2.211-1.31-.885-.125-1.771.1-2.488.637-.696.522-1.226,1.196-1.63,1.882-.404-.685-.934-1.36-1.63-1.881C9.653.133,8.769-.091,7.882.034c-.888.127-1.673.592-2.21,1.309-.538.717-.765,1.601-.638,2.488.06.419.2.813.399,1.169h-1.433C1.794,5,0,6.794,0,9v2c0,1.103.897,2,2,2v6c0,2.757,2.243,5,5,5h4c.553,0,1-.448,1-1s-.447-1-1-1h-4c-1.654,0-3-1.346-3-3v-6h11c.553,0,1-.448,1-1s-.447-1-1-1H2v-2c0-1.103.897-2,2-2h4.392s.004,0,.005,0c.002,0,.004,0,.006,0h7.192s.004,0,.006,0c.002,0,.004,0,.005,0h4.392c1.103,0,2,.897,2,2v2c-.553,0-1,.448-1,1s.447,1,1,1c1.103,0,2-.897,2-2v-2c0-2.206-1.794-4-4-4Zm-5.171-2.729c.289-.217.648-.31,1.006-.257.358.051.676.239.894.529.218.29.309.647.258,1.005-.051.359-.239.676-.561.918-.037.029-.37.278-1.018.533h-2.308c.222-.757.75-1.994,1.73-2.729Zm-7.287,2.171c-.289-.218-.478-.535-.528-.894-.051-.358.04-.715.259-1.006.217-.29.534-.478.893-.529.354-.052.716.04,1.006.258.98.735,1.507,1.971,1.73,2.729h-2.308c-.648-.255-.984-.506-1.05-.558Zm16.402,12.19c.132.362.024.768-.271,1.016l-2.169,1.767.897,2.732c.123.37-.002.777-.311,1.014-.309.237-.734.254-1.06.042l-2.524-1.644-2.482,1.661c-.154.103-.332.155-.51.155-.194,0-.387-.061-.55-.183-.312-.233-.441-.638-.325-1.009l.862-2.765-2.179-1.773c-.293-.249-.4-.654-.267-1.015.132-.361.476-.601.86-.601h2.751l.974-2.732c.133-.359.476-.597.859-.597s.726.238.859.597l.974,2.732h2.751c.385,0,.729.241.861.602Z"/>
  </symbol>
  <symbol id="hair-care" viewBox="0 0 24 24">
    <path fill="#ffffff" d="m23.707 6.239c-.391.391-1.024.391-1.414 0l-3.363-3.363c-.935-.935-2.334-1.109-3.456-.548l5.353 5.353c.391.391.391 1.024 0 1.414s-1.024.391-1.414 0l-5.471-5.471-1.459 1.459 5.471 5.471c.391.391.391 1.024 0 1.414s-1.024.391-1.414 0l-5.471-5.471-1.533 1.533 5.471 5.471c.391.391.391 1.024 0 1.414s-1.024.391-1.414 0l-5.471-5.471-1.52 1.52 5.471 5.471c.391.391.391 1.024 0 1.414s-1.024.391-1.414 0l-5.471-5.471-1.459 1.459 5.471 5.471c.391.391.391 1.024 0 1.414s-1.024.391-1.414 0l-5.385-5.385c-.646 1.143-.495 2.618.478 3.591l3.363 3.363c.391.391.391 1.024 0 1.414s-1.024.391-1.414 0l-3.363-3.363c-1.949-1.948-1.949-5.12 0-7.068l11.811-11.812c1.948-1.948 5.12-1.948 7.068 0l3.363 3.363c.391.391.391 1.024 0 1.414z"/>
  </symbol>
  <symbol id="refresh-rotate" viewBox="0 0 24 24">
    <path d="m24,12c0,.552-.447,1-1,1s-1-.448-1-1c0-5.514-4.486-10-10-10-3.154,0-6.115,1.51-7.991,4h2.991c.553,0,1,.448,1,1s-.447,1-1,1H3c-1.103,0-2-.897-2-2V2c0-.552.447-1,1-1s1,.448,1,1v2.104C5.256,1.542,8.524,0,12,0c6.617,0,12,5.383,12,12Zm-3,4h-4c-.553,0-1,.448-1,1s.447,1,1,1h2.991c-1.877,2.49-4.837,4-7.991,4-5.514,0-10-4.486-10-10,0-.552-.447-1-1-1s-1,.448-1,1c0,6.617,5.383,12,12,12,3.476,0,6.744-1.542,9-4.104v2.104c0,.552.447,1,1,1s1-.448,1-1v-4c0-1.103-.897-2-2-2Z"/>
  </symbol>
  <symbol id="star-sparkle" viewBox="0 0 24 24">
    <path d="M19.5,24a1,1,0,0,1-.929-.628l-.844-2.113-2.116-.891a1.007,1.007,0,0,1,.035-1.857l2.088-.791.837-2.092a1.008,1.008,0,0,1,1.858,0l.841,2.1,2.1.841a1.007,1.007,0,0,1,0,1.858l-2.1.841-.841,2.1A1,1,0,0,1,19.5,24ZM10,21a2,2,0,0,1-1.936-1.413L6.45,14.54,1.387,12.846a2.032,2.032,0,0,1,.052-3.871L6.462,7.441,8.154,2.387A1.956,1.956,0,0,1,10.108,1a2,2,0,0,1,1.917,1.439l1.532,5.015,5.03,1.61a2.042,2.042,0,0,1,0,3.872h0l-5.039,1.612-1.612,5.039A2,2,0,0,1,10,21Zm.112-17.977L8.2,8.564a1,1,0,0,1-.656.64L2.023,10.888l5.541,1.917a1,1,0,0,1,.636.643l1.77,5.53,1.83-5.53a1,1,0,0,1,.648-.648l5.53-1.769a.072.072,0,0,0,.02-.009L12.448,9.2a1,1,0,0,1-.652-.661Zm8.17,8.96h0ZM20.5,7a1,1,0,0,1-.97-.757l-.357-1.43L17.74,4.428a1,1,0,0,1,.034-1.94l1.4-.325L19.53.757a1,1,0,0,1,1.94,0l.354,1.418,1.418.355a1,1,0,0,1,0,1.94l-1.418.355L21.47,6.243A1,1,0,0,1,20.5,7Z"/>
  </symbol>
  <symbol id="star-filled" viewBox="0 0 24 24">
    <path d="M1.327,12.4,4.887,15,3.535,19.187A3.178,3.178,0,0,0,4.719,22.8a3.177,3.177,0,0,0,3.8-.019L12,20.219l3.482,2.559a3.227,3.227,0,0,0,4.983-3.591L19.113,15l3.56-2.6a3.227,3.227,0,0,0-1.9-5.832H16.4L15.073,2.432a3.227,3.227,0,0,0-6.146,0L7.6,6.568H3.231a3.227,3.227,0,0,0-1.9,5.832Z"/>
  </symbol>
  <symbol id="star-outline" viewBox="0 0 24 24">
    <path d="M23.836,8.794a3.179,3.179,0,0,0-3.067-2.226H16.4L15.073,2.432a3.227,3.227,0,0,0-6.146,0L7.6,6.568H3.231a3.227,3.227,0,0,0-1.9,5.832L4.887,15,3.535,19.187A3.178,3.178,0,0,0,4.719,22.8a3.177,3.177,0,0,0,3.8-.019L12,20.219l3.482,2.559a3.227,3.227,0,0,0,4.983-3.591L19.113,15l3.56-2.6A3.177,3.177,0,0,0,23.836,8.794Zm-2.343,1.991-4.144,3.029a1,1,0,0,0-.362,1.116L18.562,19.8a1.227,1.227,0,0,1-1.895,1.365l-4.075-3a1,1,0,0,0-1.184,0l-4.075,3a1.227,1.227,0,0,1-1.9-1.365L7.013,14.93a1,1,0,0,0-.362-1.116L2.507,10.785a1.227,1.227,0,0,1,.724-2.217h5.1a1,1,0,0,0,.952-.694l1.55-4.831a1.227,1.227,0,0,1,2.336,0l1.55,4.831a1,1,0,0,0,.952.694h5.1a1.227,1.227,0,0,1,.724,2.217Z"/>
  </symbol>
  <symbol id="user-profile" viewBox="0 0 24 24">
    <path d="M12,12A6,6,0,1,0,6,6,6.006,6.006,0,0,0,12,12ZM12,2A4,4,0,1,1,8,6,4,4,0,0,1,12,2Z"/><path d="M12,14a9.01,9.01,0,0,0-9,9,1,1,0,0,0,2,0,7,7,0,0,1,14,0,1,1,0,0,0,2,0A9.01,9.01,0,0,0,12,14Z"/>
  </symbol>
  <symbol id="edit-pencil" viewBox="0 0 24 24">
    <path d="M9,12c3.309,0,6-2.691,6-6S12.309,0,9,0,3,2.691,3,6s2.691,6,6,6Zm0-10c2.206,0,4,1.794,4,4s-1.794,4-4,4-4-1.794-4-4,1.794-4,4-4Zm1.75,14.22c-.568-.146-1.157-.22-1.75-.22-3.86,0-7,3.14-7,7,0,.552-.448,1-1,1s-1-.448-1-1c0-4.962,4.038-9,9-9,.762,0,1.519,.095,2.25,.284,.535,.138,.856,.683,.719,1.218-.137,.535-.68,.856-1.218,.719Zm12.371-4.341c-1.134-1.134-3.11-1.134-4.243,0l-6.707,6.707c-.755,.755-1.172,1.76-1.172,2.829v1.586c0,.552,.448,1,1,1h1.586c1.069,0,2.073-.417,2.828-1.172l6.707-6.707c.567-.567,.879-1.32,.879-2.122s-.312-1.555-.878-2.121Zm-1.415,2.828l-6.708,6.707c-.377,.378-.879,.586-1.414,.586h-.586v-.586c0-.534,.208-1.036,.586-1.414l6.708-6.707c.377-.378,1.036-.378,1.414,0,.189,.188,.293,.439,.293,.707s-.104,.518-.293,.707Z"/>
  </symbol>
  <symbol id="wallet-payment" viewBox="0 0 24 24">
    <path d="M21,6H5c-.859,0-1.672-.372-2.235-.999,.55-.614,1.349-1.001,2.235-1.001H23c.553,0,1-.448,1-1s-.447-1-1-1H5C2.239,2,0,4.239,0,7v10c0,2.761,2.239,5,5,5H21c1.657,0,3-1.343,3-3V9c0-1.657-1.343-3-3-3Zm1,13c0,.551-.448,1-1,1H5c-1.654,0-3-1.346-3-3V6.998c.854,.639,1.904,1.002,3,1.002H21c.552,0,1,.449,1,1v10Zm-2-5c0,.552-.448,1-1,1s-1-.448-1-1,.448-1,1-1,1,.448,1,1Z"/>
  </symbol>
  <symbol id="chevron-double-left" viewBox="0 0 24 24">
    <path d="M12,24a1,1,0,0,1-.71-.29L3.12,15.54a5,5,0,0,1,0-7.08L11.29.29a1,1,0,1,1,1.42,1.42L4.54,9.88a3,3,0,0,0,0,4.24l8.17,8.17a1,1,0,0,1,0,1.42A1,1,0,0,1,12,24Z"/><path d="M22,24a1,1,0,0,1-.71-.29l-9.58-9.59a3,3,0,0,1,0-4.24L21.29.29a1,1,0,1,1,1.42,1.42l-9.59,9.58a1,1,0,0,0,0,1.42l9.59,9.58a1,1,0,0,1,0,1.42A1,1,0,0,1,22,24Z"/>
  </symbol>
  <symbol id="trend-arrow-up" viewBox="0 0 24 24">
    <path d="M21,6h-6c-.553,0-1,.447-1,1s.447,1,1,1h5.586l-6.562,6.562c-.564,.564-1.482,.564-2.047,0l-2.539-2.539c-1.344-1.344-3.531-1.344-4.875,0L.293,16.293c-.391,.391-.391,1.023,0,1.414,.195,.195,.451,.293,.707,.293s.512-.098,.707-.293l4.27-4.27c.547-.547,1.5-.547,2.047,0l2.539,2.539c1.344,1.344,3.531,1.344,4.875,0l6.563-6.562v5.586c0,.553,.447,1,1,1s1-.447,1-1v-6c0-1.654-1.346-3-3-3Z"/>
  </symbol>
  <symbol id="notification-bell" viewBox="0 0 24 24">
    <path d="M22.555,13.662l-1.9-6.836A9.321,9.321,0,0,0,2.576,7.3L1.105,13.915A5,5,0,0,0,5.986,20H7.1a5,5,0,0,0,9.8,0h.838a5,5,0,0,0,4.818-6.338ZM12,22a3,3,0,0,1-2.816-2h5.632A3,3,0,0,1,12,22Zm8.126-5.185A2.977,2.977,0,0,1,17.737,18H5.986a3,3,0,0,1-2.928-3.651l1.47-6.616a7.321,7.321,0,0,1,14.2-.372l1.9,6.836A2.977,2.977,0,0,1,20.126,16.815Z"/>
  </symbol>
  <symbol id="chat-message" viewBox="0 0 24 24">
    <path d="m8.97,10.322c.072.197.013.419-.148.554l-1.183.964.489,1.49c.067.202,0,.424-.169.553-.169.129-.4.138-.578.023l-1.377-.897-1.354.906c-.084.056-.181.084-.278.084-.106,0-.211-.033-.3-.1-.17-.127-.241-.348-.177-.55l.47-1.508-1.189-.967c-.16-.136-.218-.357-.146-.553.072-.197.26-.328.469-.328h1.5l.531-1.49c.073-.196.26-.325.469-.325s.396.13.469.325l.531,1.49h1.5c.21,0,.398.131.47.329Zm5.53-.329h-1.5l-.531-1.49c-.073-.196-.26-.325-.469-.325s-.396.13-.469.325l-.531,1.49h-1.5c-.21,0-.397.131-.469.328-.073.197-.014.418.146.553l1.189.967-.47,1.508c-.063.202.007.423.177.55.089.066.194.1.3.1.097,0,.194-.028.278-.084l1.354-.906,1.377.897c.178.115.409.106.578-.023.168-.13.236-.352.169-.553l-.489-1.49,1.183-.964c.161-.135.22-.357.148-.554s-.26-.329-.47-.329Zm6,0h-1.5l-.531-1.49c-.073-.196-.26-.325-.469-.325s-.396.13-.469.325l-.531,1.49h-1.5c-.21,0-.397.131-.469.328-.073.197-.014.418.146.553l1.189.967-.47,1.508c-.063.202.007.423.177.55.089.066.194.1.3.1.097,0,.194-.028.278-.084l1.354-.906,1.377.897c.178.115.409.106.578-.023.168-.13.236-.352.169-.553l-.489-1.49,1.183-.964c.161-.135.22-.357.148-.554s-.26-.329-.47-.329Zm3.5-2.994v8c0,2.206-1.794,4-4,4h-2.852l-3.848,3.18c-.361.322-.824.484-1.292.484-.476,0-.955-.168-1.337-.507l-3.749-3.157h-2.923c-2.206,0-4-1.794-4-4V7C0,4.794,1.794,3,4,3h16c2.206,0,4,1.794,4,4Zm-2,0c0-1.103-.897-2-2-2H4c-1.103,0-2,.897-2,2v8c0,1.103.897,2,2,2h3.288c.235,0,.464.083.645.235l4.048,3.41,4.171-3.416c.179-.148.404-.229.637-.229h3.212c1.103,0,2-.897,2-2V7Z"/>
  </symbol>
  <symbol id="heart-love" viewBox="0 0 24 24">
    <path d="m23.017,8.785c-.595-.542-1.364-.816-2.168-.782-.804.038-1.544.387-2.086.981l-3.216,3.534c-.551-.909-1.55-1.519-2.689-1.519H4c-2.206,0-4,1.794-4,4v5c0,2.206,1.794,4,4,4h4.965c2.849,0,5.57-1.22,7.466-3.348l6.805-7.638c1.093-1.227.994-3.124-.219-4.229Zm-1.274,2.899l-6.805,7.638c-1.517,1.701-3.694,2.678-5.973,2.678h-4.965c-1.103,0-2-.897-2-2v-5c0-1.103.897-2,2-2h8.858c.63,0,1.142.513,1.142,1.143,0,.564-.421,1.051-.981,1.13l-5.161.737c-.546.078-.926.585-.848,1.132.079.548.585.929,1.131.849l5.16-.737c1.175-.168,2.13-.988,2.515-2.059l4.426-4.864c.182-.199.43-.316.7-.329.274-.016.528.081.728.263.407.371.44,1.009.073,1.421ZM4.294,4.494c-.267-.226-.364-.594-.243-.922.12-.328.433-.546.782-.546h2.501l.885-2.483c.121-.326.433-.542.781-.542s.66.216.781.542l.885,2.483h2.501c.35,0,.663.219.783.548.12.329.022.698-.246.923l-1.971,1.606.815,2.484c.112.336-.002.706-.282.922-.281.216-.667.231-.964.038l-2.295-1.495-2.257,1.51c-.14.094-.302.141-.463.141-.176,0-.352-.056-.5-.166-.283-.212-.401-.58-.295-.917l.784-2.513-1.981-1.612Z"/>
  </symbol>
  <symbol id="spa-treatment-person" viewBox="0 0 24 24">
    <path d="M23,22H22V14a5.006,5.006,0,0,0-5-5H13V6.039A2.5,2.5,0,0,0,14.5,3.75,7.293,7.293,0,0,0,12.738.327a1,1,0,0,0-1.476,0A7.293,7.293,0,0,0,9.5,3.75,2.5,2.5,0,0,0,11,6.039V9H7a5.006,5.006,0,0,0-5,5v8H1a1,1,0,0,0,0,2H23a1,1,0,0,0,0-2ZM7,11H17a3,3,0,0,1,3,3v1.98c-.936-.1-1.5-.7-1.5-.98a1,1,0,0,0-2,0c0,.343-.682,1-1.75,1C13.661,16,13,15.306,13,15a1,1,0,0,0-2,0c0,.343-.682,1-1.75,1-1.089,0-1.75-.694-1.75-1a1,1,0,0,0-2,0c0,.315-.579.888-1.5.981V14A3,3,0,0,1,7,11ZM4,17.979A4.156,4.156,0,0,0,6.5,17a4.309,4.309,0,0,0,5.5.015A4.309,4.309,0,0,0,17.5,17a4.156,4.156,0,0,0,2.5.978V22H4Z"/>
  </symbol>
  <symbol id="calendar-schedule" viewBox="0 0 24 24">
    <path d="M19,2H18V1a1,1,0,0,0-2,0V2H8V1A1,1,0,0,0,6,1V2H5A5.006,5.006,0,0,0,0,7V19a5.006,5.006,0,0,0,5,5H19a5.006,5.006,0,0,0,5-5V7A5.006,5.006,0,0,0,19,2ZM2,7A3,3,0,0,1,5,4H19a3,3,0,0,1,3,3V8H2ZM19,22H5a3,3,0,0,1-3-3V10H22v9A3,3,0,0,1,19,22Z"/><circle cx="12" cy="15" r="1.5"/><circle cx="7" cy="15" r="1.5"/><circle cx="17" cy="15" r="1.5"/>
  </symbol>
  <symbol id="checkmark-tick" viewBox="0 0 24 24">
    <path d="M22.319,4.431,8.5,18.249a1,1,0,0,1-1.417,0L1.739,12.9a1,1,0,0,0-1.417,0h0a1,1,0,0,0,0,1.417l5.346,5.345a3.008,3.008,0,0,0,4.25,0L23.736,5.847a1,1,0,0,0,0-1.416h0A1,1,0,0,0,22.319,4.431Z"/>
  </symbol>
  <symbol id="circle-outline" viewBox="0 0 24 24">
    <path d="M12,0A12,12,0,1,0,24,12,12,12,0,0,0,12,0Zm0,22A10,10,0,1,1,22,12,10,10,0,0,1,12,22Z"/>
  </symbol>
  <symbol id="timer-clock" viewBox="0 0 24 24">
    <path d="M12,0A12,12,0,1,0,24,12,12.013,12.013,0,0,0,12,0Zm0,22A10,10,0,1,1,22,12,10.011,10.011,0,0,1,12,22Z"/><path d="M12,6a1,1,0,0,0-1,1v4.325L7.629,13.437a1,1,0,0,0,1.062,1.7l3.84-2.4A1,1,0,0,0,13,11.879V7A1,1,0,0,0,12,6Z"/>
  </symbol>
  <symbol id="palette-color" viewBox="0 0 24 24">
    <path d="M22,12.184V11a3,3,0,0,0-2-2.816A14.458,14.458,0,0,0,18.15.809a1.948,1.948,0,0,0-1.717-.818,2.035,2.035,0,0,0-1.664,1.074C14,2.476,13.24,3,11.962,3H10A5.676,5.676,0,0,0,4.061,8.165,3,3,0,0,0,2,11v1.184A3,3,0,0,0,0,15v4a5.006,5.006,0,0,0,5,5H19a5.006,5.006,0,0,0,5-5V15A3,3,0,0,0,22,12.184ZM10,5h1.962a4.952,4.952,0,0,0,4.566-3.022A12.409,12.409,0,0,1,18,8H6.131A3.658,3.658,0,0,1,10,5ZM4,11a1,1,0,0,1,1-1H19a1,1,0,0,1,1,1v1H4Zm18,8a3,3,0,0,1-3,3H5a3,3,0,0,1-3-3V15a1,1,0,0,1,1-1H21a1,1,0,0,1,1,1Z"/>
  </symbol>
  <symbol id="credit-card-alt" viewBox="0 0 24 24">
    <circle cx="5.5" cy="15.5" r="1.5"/><path d="M19,3H5A5.006,5.006,0,0,0,0,8v8a5.006,5.006,0,0,0,5,5H19a5.006,5.006,0,0,0,5-5V8A5.006,5.006,0,0,0,19,3ZM5,5H19a3,3,0,0,1,3,3H2A3,3,0,0,1,5,5ZM19,19H5a3,3,0,0,1-3-3V10H22v6A3,3,0,0,1,19,19Z"/>
  </symbol>
  <symbol id="close-x" viewBox="0 0 24 24">
    <path d="M23.707.293h0a1,1,0,0,0-1.414,0L12,10.586,1.707.293a1,1,0,0,0-1.414,0h0a1,1,0,0,0,0,1.414L10.586,12,.293,22.293a1,1,0,0,0,0,1.414h0a1,1,0,0,0,1.414,0L12,13.414,22.293,23.707a1,1,0,0,0,1.414,0h0a1,1,0,0,0,0-1.414L13.414,12,23.707,1.707A1,1,0,0,0,23.707.293Z"/>
  </symbol>
  <symbol id="file-document" viewBox="0 0 24 24">
    <path d="m18.813,10c.309,0,.601-.143.79-.387s.255-.562.179-.861c-.311-1.217-.945-2.329-1.833-3.217l-3.485-3.485c-1.322-1.322-3.08-2.05-4.95-2.05h-4.515C2.243,0,0,2.243,0,5v14c0,2.757,2.243,5,5,5h3c.552,0,1-.448,1-1s-.448-1-1-1h-3c-1.654,0-3-1.346-3-3V5c0-1.654,1.346-3,3-3h4.515c.163,0,.325.008.485.023v4.977c0,1.654,1.346,3,3,3h5.813Zm-6.813-3V2.659c.379.218.732.488,1.05.806l3.485,3.485c.314.314.583.668.803,1.05h-4.338c-.551,0-1-.449-1-1Zm11.122,4.879c-1.134-1.134-3.11-1.134-4.243,0l-6.707,6.707c-.755.755-1.172,1.76-1.172,2.829v1.586c0,.552.448,1,1,1h1.586c1.069,0,2.073-.417,2.828-1.172l6.707-6.707c.567-.567.879-1.32.879-2.122s-.312-1.555-.878-2.121Zm-1.415,2.828l-6.708,6.707c-.377.378-.879.586-1.414.586h-.586v-.586c0-.534.208-1.036.586-1.414l6.708-6.707c.377-.378,1.036-.378,1.414,0,.189.188.293.439.293.707s-.104.518-.293.707Z"/>
  </symbol>
  <symbol id="close-circle-cancel" viewBox="0 0 24 24">
    <path d="M15.207,14.207,13.414,16l1.793,1.793a1,1,0,1,1-1.414,1.414L12,17.414l-1.793,1.793a1,1,0,0,1-1.414-1.414L10.586,16,8.793,14.207a1,1,0,0,1,1.414-1.414L12,14.586l1.793-1.793a1,1,0,0,1,1.414,1.414ZM22,10.485V19a5.006,5.006,0,0,1-5,5H7a5.006,5.006,0,0,1-5-5V5A5.006,5.006,0,0,1,7,0h4.515a6.958,6.958,0,0,1,4.95,2.05l3.484,3.486A6.951,6.951,0,0,1,22,10.485ZM15.051,3.464A5.01,5.01,0,0,0,14,2.684V7a1,1,0,0,0,1,1h4.316a4.983,4.983,0,0,0-.781-1.05ZM20,10.485c0-.165-.032-.323-.047-.485H15a3,3,0,0,1-3-3V2.047C11.838,2.032,11.679,2,11.515,2H7A3,3,0,0,0,4,5V19a3,3,0,0,0,3,3H17a3,3,0,0,0,3-3Z"/>
  </symbol>
  <symbol id="email-envelope" viewBox="0 0 24 24">
    <path d="M19,1H5A5.006,5.006,0,0,0,0,6V18a5.006,5.006,0,0,0,5,5H19a5.006,5.006,0,0,0,5-5V6A5.006,5.006,0,0,0,19,1ZM5,3H19a3,3,0,0,1,2.78,1.887l-7.658,7.659a3.007,3.007,0,0,1-4.244,0L2.22,4.887A3,3,0,0,1,5,3ZM19,21H5a3,3,0,0,1-3-3V7.5L8.464,13.96a5.007,5.007,0,0,0,7.072,0L22,7.5V18A3,3,0,0,1,19,21Z"/>
  </symbol>
  <symbol id="bonus-hand" viewBox="0 0 24 24">
   <path d="m23.017,8.785c-.595-.542-1.364-.816-2.168-.782-.804.038-1.544.387-2.086.981l-3.216,3.534c-.551-.909-1.55-1.519-2.689-1.519H4c-2.206,0-4,1.794-4,4v5c0,2.206,1.794,4,4,4h4.965c2.849,0,5.57-1.22,7.466-3.348l6.805-7.638c1.093-1.227.994-3.124-.219-4.229Zm-1.274,2.899l-6.805,7.638c-1.517,1.701-3.694,2.678-5.973,2.678h-4.965c-1.103,0-2-.897-2-2v-5c0-1.103.897-2,2-2h8.858c.63,0,1.142.513,1.142,1.143,0,.564-.421,1.051-.981,1.13l-5.161.737c-.546.078-.926.585-.848,1.132.079.548.585.929,1.131.849l5.16-.737c1.175-.168,2.13-.988,2.515-2.059l4.426-4.864c.182-.199.43-.316.7-.329.274-.016.528.081.728.263.407.371.44,1.009.073,1.421ZM4.294,4.494c-.267-.226-.364-.594-.243-.922.12-.328.433-.546.782-.546h2.501l.885-2.483c.121-.326.433-.542.781-.542s.66.216.781.542l.885,2.483h2.501c.35,0,.663.219.783.548.12.329.022.698-.246.923l-1.971,1.606.815,2.484c.112.336-.002.706-.282.922-.281.216-.667.231-.964.038l-2.295-1.495-2.257,1.51c-.14.094-.302.141-.463.141-.176,0-.352-.056-.5-.166-.283-.212-.401-.58-.295-.917l.784-2.513-1.981-1.612Z"/>
  </symbol>
  <symbol id="home-house" viewBox="0 0 24 24">
    <path d="M23.121,9.069,15.536,1.483a5.008,5.008,0,0,0-7.072,0L.879,9.069A2.978,2.978,0,0,0,0,11.19v9.817a3,3,0,0,0,3,3H21a3,3,0,0,0,3-3V11.19A2.978,2.978,0,0,0,23.121,9.069ZM15,22.007H9V18.073a3,3,0,0,1,6,0Zm7-1a1,1,0,0,1-1,1H17V18.073a5,5,0,0,0-10,0v3.934H3a1,1,0,0,1-1-1V11.19a1.008,1.008,0,0,1,.293-.707L9.878,2.9a3.008,3.008,0,0,1,4.244,0l7.585,7.586A1.008,1.008,0,0,1,22,11.19Z"/>
  </symbol>
  <symbol id="arrow-undo" viewBox="0 0 24 24">
    <path d="M12,6a4,4,0,1,0,4,4A4,4,0,0,0,12,6Zm0,6a2,2,0,1,1,2-2A2,2,0,0,1,12,12Z"/><path d="M12,24a5.271,5.271,0,0,1-4.311-2.2c-3.811-5.257-5.744-9.209-5.744-11.747a10.055,10.055,0,0,1,20.11,0c0,2.538-1.933,6.49-5.744,11.747A5.271,5.271,0,0,1,12,24ZM12,2.181a7.883,7.883,0,0,0-7.874,7.874c0,2.01,1.893,5.727,5.329,10.466a3.145,3.145,0,0,0,5.09,0c3.436-4.739,5.329-8.456,5.329-10.466A7.883,7.883,0,0,0,12,2.181Z"/>
  </symbol>
  <symbol id="play-button" viewBox="0 0 24 24">
    <path d="M0,2.5C0,1.119,1.119,0,2.5,0s2.5,1.119,2.5,2.5-1.119,2.5-2.5,2.5S0,3.881,0,2.5Zm17.5,2.5c1.381,0,2.5-1.119,2.5-2.5s-1.119-2.5-2.5-2.5-2.5,1.119-2.5,2.5,1.119,2.5,2.5,2.5Zm5.947,18.895c-.144,.072-.296,.105-.446,.105-.367,0-.72-.202-.896-.553l-2.354-4.708-5.199-2.684c-1.184-.671-1.775-2.025-1.474-3.311l.806-3.31-3.151,1.803c-.289,.165-.643,.175-.94,.028l-3.585-1.775,1.216,4.195c.204,.82,.081,1.631-.335,2.321-.193,.321-.444,.592-.731,.815l1.606,5.915c.145,.533-.17,1.083-.703,1.227-.088,.024-.176,.036-.263,.036-.44,0-.844-.293-.964-.738l-1.575-5.799c-.537-.007-1.064-.157-1.534-.446-.694-.427-1.177-1.101-1.359-1.895L.084,9.663c-.21-.926,0-1.84,.566-2.548,.566-.708,1.411-1.114,2.317-1.114,.532,0,1.51,.403,1.527,.412l5.708,2.825,4.707-2.694c.661-.374,1.431-.568,2.159-.558,.901,.01,1.733,.425,2.282,1.14,.549,.714,.737,1.625,.515,2.498l-.173,.682,3.784,2.045c.486,.263,.667,.87,.404,1.355-.181,.334-.525,.524-.881,.524-.161,0-.323-.039-.475-.12l-3.341-1.806-.874,3.439,2.65,1.368c.188,.097,.341,.252,.436,.441l2.5,5c.247,.494,.047,1.095-.447,1.342ZM5.493,14.205s-1.586-5.471-1.589-5.48c-.11-.427-.495-.725-.937-.725-.295,0-.571,.132-.755,.363-.185,.231-.253,.528-.188,.817l1.482,5.457c.071,.307,.234,.533,.468,.677s.508,.188,.775,.121c.264-.065,.486-.229,.626-.461,.14-.232,.182-.505,.116-.769Zm12.271-5.861c-.173-.225-.435-.355-.718-.358-.261-.009-.529,.056-.788,.15l-1.235,5.073c-.098,.42,.099,.871,.482,1.088l.979,.505,1.442-5.672c.07-.274,.011-.561-.162-.786Zm-3.787,8.968c-.529-.159-1.086,.143-1.244,.673l-1.41,4.73c-.158,.529,.144,1.086,.673,1.244,.095,.028,.191,.042,.286,.042,.431,0,.829-.281,.958-.715l1.41-4.73c.158-.529-.144-1.086-.673-1.244Z"/>
  </symbol>
  <symbol id="skip-track" viewBox="0 0 24 24">
    <path d="M22.17,1.82l-1.05-.91c-1.21-1.21-3.17-1.21-4.38,0-.03,.03-1.88,2.44-1.88,2.44-1.14,1.2-1.14,3.09,0,4.28l1.16,1.46c-1.46,3.31-3.73,5.59-6.93,6.95l-1.46-1.17c-1.19-1.15-3.09-1.15-4.28,0,0,0-2.41,1.85-2.44,1.88-1.21,1.21-1.21,3.17-.05,4.33l1,1.15c1.15,1.15,2.7,1.78,4.38,1.78,7.64,0,17.76-10.13,17.76-17.76,0-1.67-.63-3.23-1.83-4.42ZM6.24,22c-1.14,0-2.19-.42-2.91-1.15l-1-1.15c-.41-.41-.43-1.08-.04-1.51,0,0,2.39-1.84,2.42-1.87,.41-.41,1.13-.41,1.55,0,.03,.03,2.04,1.64,2.04,1.64,.28,.22,.65,.28,.98,.15,4.14-1.58,7.11-4.54,8.82-8.81,.13-.33,.08-.71-.15-1,0,0-1.61-2.02-1.63-2.04-.43-.43-.43-1.12,0-1.55,.03-.03,1.87-2.42,1.87-2.42,.43-.39,1.1-.38,1.56,.08l1.05,.91c.77,.77,1.2,1.82,1.2,2.96,0,6.96-9.77,15.76-15.76,15.76Z"/>
  </symbol>
  <symbol id="home" viewBox="0 0 24 24">
    <path d="M23.121,9.069,15.536,1.483a5.008,5.008,0,0,0-7.072,0L.879,9.069A2.978,2.978,0,0,0,0,11.19v9.817a3,3,0,0,0,3,3H21a3,3,0,0,0,3-3V11.19A2.978,2.978,0,0,0,23.121,9.069ZM15,22.007H9V18.073a3,3,0,0,1,6,0Zm7-1a1,1,0,0,1-1,1H17V18.073a5,5,0,0,0-10,0v3.934H3a1,1,0,0,1-1-1V11.19a1.008,1.008,0,0,1,.293-.707L9.878,2.9a3.008,3.008,0,0,1,4.244,0l7.585,7.586A1.008,1.008,0,0,1,22,11.19Z"/>
  </symbol>
  <symbol id="decorative-shapes" viewBox="0 0 24 24">
    
  </symbol>
  <symbol id="skin-care" viewBox="0 0 24 24">
    <path fill="#ffffff" d="M15.381,17.839c.261,.486,.079,1.093-.407,1.354-.996,.535-1.997,.807-2.974,.807s-1.978-.271-2.974-.807c-.486-.262-.668-.868-.407-1.354s.867-.67,1.354-.407c.482,.26,1.226,.568,2.026,.568s1.544-.309,2.026-.568c.486-.263,1.093-.079,1.354,.407Zm-4.4-4.134c.103-.352-.237-.674-.586-.561-.389,.126-.892,.356-1.396,.356s-1.007-.23-1.396-.356c-.349-.113-.689,.209-.586,.561,.262,.892,.922,1.795,1.981,1.795s1.719-.903,1.981-1.795Zm13.019-6.806V15c0,1.597-1.258,2.895-2.833,2.983-1.59,3.657-5.172,6.017-9.167,6.017s-7.577-2.36-9.167-6.017c-1.575-.089-2.833-1.386-2.833-2.983V6.899C0,4.763,.832,2.753,2.343,1.243l.95-.95c.391-.391,1.023-.391,1.414,0s.391,1.023,0,1.414l-.95,.95c-1.133,1.133-1.757,2.64-1.757,4.243V15c0,.552,.449,1,1,1s1-.448,1-1c0,0,.012-8.043,.013-8.067,.015-.662,.239-1.32,.688-1.856l2.661-2.771c.383-.399,1.017-.41,1.414-.028,.398,.383,.411,1.016,.028,1.414l-2.616,2.721c-.13,.157-.191,.369-.188,.586,.013,.221,.095,.49,.254,.669,.366,.409,.998,.443,1.406,.077l2.725-2.507c1.026-.944,1.615-2.285,1.615-3.68v-.559c0-.552,.448-1,1-1s1,.448,1,1v.559c0,1.152-.294,2.275-.824,3.276l3.173,2.92c.398,.357,1.03,.323,1.397-.086,.328-.367,.337-.928,.021-1.305l-2.487-2.584c-.383-.398-.371-1.031,.028-1.414,.398-.382,1.031-.371,1.414,.028l2.533,2.634c.46,.547,.693,1.2,.723,1.854,.005,.04,.024,8.118,.024,8.118,0,.552,.449,1,1,1s1-.448,1-1V6.899c0-1.603-.624-3.109-1.757-4.243l-.95-.95c-.391-.391-.391-1.023,0-1.414s1.023-.391,1.414,0l.95,.95c1.511,1.511,2.343,3.52,2.343,5.657Zm-4.777,10.504c-.738-.547-1.223-1.417-1.223-2.404v-5.186c-.323,.114-.658,.185-.998,.185-.712,0-1.427-.251-1.998-.763l-3.018-2.777c-.082,.084-.16,.172-.247,.252l-2.734,2.516c-.577,.517-1.296,.771-2.011,.771-.339,0-.673-.071-.994-.184v5.187c0,.987-.485,1.857-1.223,2.404,1.319,2.797,4.109,4.596,7.223,4.596s5.904-1.799,7.223-4.596Zm-2.827-4.259c-.389,.126-.892,.356-1.396,.356s-1.007-.23-1.396-.356c-.349-.113-.689,.209-.586,.561,.262,.892,.922,1.795,1.981,1.795s1.719-.903,1.981-1.795c.103-.352-.237-.674-.586-.561Z"/>
  </symbol>
</defs>
</svg>